Coordinates
version=1
nRows=45
nColumns=13
inDegrees=yes

Units are S.I. units (second, meters, Newtons, ...)
If the header above contains a line with 'inDegrees', this indicates whether rotational values are in degrees (yes) or radians (no).

endheader
time	pelvis_tilt	pelvis_tx	pelvis_ty	hip_flexion_l	hip_flexion_r	knee_angle_l	knee_angle_r	ankle_angle_l	ankle_angle_r	lumbar	Treadmill_tx	Compensate_tx
     15.00000000	    -11.80748728	      1.36456818	      0.97363790	     -2.15434119	     29.05156078	    -36.24237005	     -8.86876181	    -19.65632383	     -5.26713094	      6.58098108	    -40.05000000	     40.05000000
     15.01000000	    -11.18546526	      1.36304652	      0.96917444	     -0.28068881	     28.95816963	    -40.87206500	    -12.47728774	    -17.96349146	     -4.33405226	      5.55024599	    -40.07670000	     40.07670000
     15.02000000	    -10.52278145	      1.36107652	      0.96445093	      1.74371773	     28.91071219	    -45.42119548	    -16.48271588	    -16.16927710	     -2.81302297	      4.41576649	    -40.10340000	     40.10340000
     15.03000000	     -9.83470381	      1.35871674	      0.95966552	      3.90335228	     28.80765104	    -49.81460424	    -20.59997870	    -14.30804541	     -0.80797408	      3.20682388	    -40.13010000	     40.13010000
     15.04000000	     -9.12996380	      1.35615342	      0.95506892	      6.15981993	     28.49507155	    -53.92294024	    -24.48399064	    -12.40878189	      1.51431422	      1.95806056	    -40.15680000	     40.15680000
     15.05000000	     -8.47839851	      1.35353802	      0.95087305	      8.54005605	     27.89766441	    -57.64043960	    -27.82983150	    -10.53565740	      3.96421551	      0.77743773	    -40.18350000	     40.18350000
     15.06000000	     -7.96090897	      1.35101733	      0.94729010	     11.07474693	     26.99174731	    -60.85501266	    -30.40995996	     -8.73641125	      6.35148733	     -0.20855203	    -40.21020000	     40.21020000
     15.07000000	     -7.56617860	      1.34882244	      0.94457118	     13.67958349	     25.71528128	    -63.44613939	    -32.14621652	     -7.08545160	      8.56108402	     -0.97176827	    -40.23690000	     40.23690000
     15.08000000	     -7.34225366	      1.34704694	      0.94284278	     16.34749221	     24.12746899	    -65.33996601	    -33.02959777	     -5.57790924	     10.49975832	     -1.45644324	    -40.26360000	     40.26360000
     15.09000000	     -7.24130180	      1.34581650	      0.94223940	     18.96143733	     22.22510697	    -66.47110967	    -33.15448863	     -4.26545996	     12.04067680	     -1.67802213	    -40.29030000	     40.29030000
     15.10000000	     -7.25753619	      1.34515168	      0.94277738	     21.47299905	     20.07386976	    -66.82488096	    -32.63416090	     -3.12071805	     13.07248135	     -1.64141361	    -40.31700000	     40.31700000
     15.11000000	     -7.36596480	      1.34500859	      0.94443192	     23.81671271	     17.70894755	    -66.39256719	    -31.54218787	     -2.09460537	     13.53369329	     -1.41253591	    -40.34370000	     40.34370000
     15.12000000	     -7.61812774	      1.34538914	      0.94702449	     26.02834209	     15.25384126	    -65.16805388	    -29.96739812	     -1.66441840	     13.51949717	     -0.90749127	    -40.37040000	     40.37040000
     15.13000000	     -7.81411795	      1.34621689	      0.95065695	     27.85027151	     12.54478836	    -63.24640057	    -27.93705259	     -0.48805237	     12.28252538	     -0.40853278	    -40.39710000	     40.39710000
     15.14000000	     -8.12341306	      1.34756753	      0.95497462	     29.43368968	      9.84149100	    -60.51946669	    -25.61307993	      0.14040582	     10.39769820	      0.34570424	    -40.42380000	     40.42380000
     15.15000000	     -8.49612519	      1.34910095	      0.95975441	     30.80177413	      7.16261919	    -57.20879012	    -23.02352672	      0.56308572	      7.84358228	      1.11559646	    -40.45050000	     40.45050000
     15.16000000	     -9.06738117	      1.35105247	      0.96463411	     32.02921544	      4.74083758	    -53.24074557	    -20.40126891	      0.84654355	      4.53812058	      2.20805264	    -40.47720000	     40.47720000
     15.17000000	     -9.66710734	      1.35332067	      0.96963152	     32.94758403	      2.42948988	    -48.69371577	    -17.78701442	      0.94227761	      0.66420858	      3.35679139	    -40.50390000	     40.50390000
     15.18000000	    -10.27789031	      1.35584850	      0.97455205	     33.54656792	      0.26905488	    -43.62318285	    -15.30121698	      0.85945495	     -3.59880080	      4.53400719	    -40.53060000	     40.53060000
     15.19000000	    -10.95317161	      1.35862389	      0.97908756	     33.91473642	     -1.63507112	    -38.15259658	    -13.05451663	      0.63724701	     -7.99144810	      5.80809467	    -40.55730000	     40.55730000
     15.20000000	    -11.53776480	      1.36154888	      0.98327027	     33.93103474	     -3.40480425	    -32.41629199	    -11.14762651	      0.26285329	    -12.22737149	      6.93669843	    -40.58400000	     40.58400000
     15.21000000	    -12.09076730	      1.36463917	      0.98682647	     33.69906529	     -4.94191219	    -26.58035822	     -9.66239868	     -0.22114859	    -16.27245410	      8.07261620	    -40.61070000	     40.61070000
     15.22000000	    -12.56238085	      1.36776363	      0.98967819	     33.26872316	     -6.24053517	    -20.92561913	     -8.73556383	     -0.74428470	    -19.77634928	      9.07829515	    -40.63740000	     40.63740000
     15.23000000	    -12.83598898	      1.37082751	      0.99191061	     32.59198917	     -7.38309352	    -15.68743544	     -8.44444422	     -1.21115782	    -22.64154068	      9.81904996	    -40.66410000	     40.66410000
     15.24000000	    -12.99069901	      1.37368852	      0.99342761	     31.82464174	     -8.23432839	    -11.08587652	     -8.86883224	     -1.56380643	    -24.84564079	     10.37643823	    -40.69080000	     40.69080000
     15.25000000	    -12.98630854	      1.37626565	      0.99430942	     30.99428408	     -8.79899477	     -7.33426350	    -10.05622864	     -1.71057414	    -26.29668739	     10.68241925	    -40.71750000	     40.71750000
     15.26000000	    -12.87937852	      1.37838331	      0.99452763	     30.19057831	     -8.96701651	     -4.52394837	    -12.05092450	     -1.71294780	    -27.07241487	     10.79021452	    -40.74420000	     40.74420000
     15.27000000	    -12.72775605	      1.38001307	      0.99404335	     29.49628956	     -8.68036840	     -2.72145078	    -14.79553596	     -1.52503701	    -27.35498140	     10.77055907	    -40.77090000	     40.77090000
     15.28000000	    -12.39628890	      1.38114748	      0.99306057	     28.72903333	     -8.14380401	     -1.84036695	    -18.12460606	     -1.43403803	    -27.21341775	     10.45512229	    -40.79760000	     40.79760000
     15.29000000	    -11.96464134	      1.38172154	      0.99140593	     27.97941285	     -7.24092435	     -1.84350799	    -22.12060967	     -1.37076161	    -26.04024355	      9.92531633	    -40.82430000	     40.82430000
     15.30000000	    -11.48702997	      1.38185410	      0.98905726	     27.30163396	     -6.01602774	     -2.67497868	    -26.47646328	     -1.34967930	    -24.89444382	      9.28433076	    -40.85100000	     40.85100000
     15.31000000	    -10.92232483	      1.38152583	      0.98607645	     26.64211188	     -4.56210922	     -4.21927604	    -31.09294451	     -1.37159899	    -23.50543941	      8.47941238	    -40.87770000	     40.87770000
     15.32000000	    -10.32276694	      1.38077419	      0.98245046	     26.05694315	     -2.85941966	     -6.37533185	    -35.87492941	     -1.30507204	    -21.92881058	      7.56739793	    -40.90440000	     40.90440000
     15.33000000	     -9.66198299	      1.37957881	      0.97832548	     25.53005517	     -0.99145379	     -9.07429127	    -40.67457243	     -0.96480124	    -20.23256323	      6.52409407	    -40.93110000	     40.93110000
     15.34000000	     -9.01671957	      1.37799397	      0.97372186	     25.11373936	      1.10790545	    -12.17974303	    -45.44485271	     -0.15409879	    -18.48979428	      5.46147594	    -40.95780000	     40.95780000
     15.35000000	     -8.31783512	      1.37602316	      0.96898053	     24.70665588	      3.29747865	    -15.60337250	    -50.00167622	      1.23666115	    -16.74521258	      4.26932981	    -40.98450000	     40.98450000
     15.36000000	     -7.69903404	      1.37373260	      0.96412341	     24.37291120	      5.70440479	    -19.16973681	    -54.28674313	      3.15920523	    -14.99589933	      3.14773023	    -41.01120000	     41.01120000
     15.37000000	     -7.08624309	      1.37129351	      0.95957716	     23.88947746	      8.17670036	    -22.59816932	    -58.14825891	      5.48074496	    -13.32904457	      2.00758848	    -41.03790000	     41.03790000
     15.38000000	     -6.57330022	      1.36878016	      0.95554730	     23.22582341	     10.76982070	    -25.60740789	    -61.46809565	      7.92124643	    -11.77859174	      0.98966882	    -41.06460000	     41.06460000
     15.39000000	     -6.19632127	      1.36639784	      0.95226911	     22.28605749	     13.46325766	    -27.92969260	    -64.16117263	     10.28451767	    -10.36531091	      0.15549454	    -41.09130000	     41.09130000
     15.40000000	     -5.96888097	      1.36426717	      0.94994702	     21.02956210	     16.20458986	    -29.43993624	    -66.12308410	     12.37333258	     -9.11227081	     -0.44468173	    -41.11800000	     41.11800000
     15.41000000	     -5.85619174	      1.36248047	      0.94876343	     19.39897828	     18.89416736	    -30.06161653	    -67.29938092	     14.07348388	     -8.04836049	     -0.84460305	    -41.14470000	     41.14470000
     15.42000000	     -5.90731156	      1.36102365	      0.94863909	     17.52176313	     21.54859321	    -29.89622652	    -67.69326084	     15.15198669	     -7.11780827	     -0.97008282	    -41.17140000	     41.17140000
     15.43000000	     -6.08925572	      1.35995821	      0.94959789	     15.38360916	     24.07954330	    -28.95153908	    -67.26703903	     15.73831292	     -6.22218353	     -0.87420746	    -41.19810000	     41.19810000
     15.44000000	     -6.36059395	      1.35915447	      0.95152949	     13.08512326	     26.43533154	    -27.47841230	    -66.05350986	     15.75544989	     -5.91524567	     -0.61028326	    -41.22480000	     41.22480000
